<svg id="考试" xmlns="http://www.w3.org/2000/svg" width="28" height="28" viewBox="0 0 28 28">
  <defs>
    <style>
      .cls-1 {
        fill: #7a8c99;
        stroke: #707070;
      }

      .cls-1, .cls-2 {
        opacity: 0;
      }

      .cls-2, .cls-4 {
        fill: #36aafd;
      }

      .cls-3, .cls-6 {
        fill: none;
      }

      .cls-5, .cls-7 {
        stroke: none;
      }

      .cls-7 {
        fill: #36aafd;
      }
    </style>
  </defs>
  <g id="矩形_3892" data-name="矩形 3892" class="cls-1">
    <rect class="cls-5" width="28" height="28"/>
    <rect class="cls-6" x="0.5" y="0.5" width="27" height="27"/>
  </g>
  <g id="未选中" transform="translate(3 3)">
    <rect id="矩形_6259" data-name="矩形 6259" class="cls-2" width="22" height="22"/>
    <g id="组_6998" data-name="组 6998">
      <g id="联合_103" data-name="联合 103" class="cls-3" transform="translate(13.176 1.585) rotate(45)">
        <path class="cls-5" d="M3.55,16.76l-2.293-1.8A3.443,3.443,0,0,1,0,12.277V3.112A3.131,3.131,0,0,1,3.108,0h5.14a3.131,3.131,0,0,1,3.11,3.108v9.168A3.448,3.448,0,0,1,10.1,14.965l-.008.005L7.868,16.76a3.473,3.473,0,0,1-4.318,0Z"/>
        <path class="cls-7" d="M 5.709411144256592 16.01276016235352 L 5.709391117095947 16.01276016235352 C 6.151145458221436 16.01276016235352 6.585421085357666 15.8616361618042 6.932647705078125 15.58715724945068 L 9.171757698059082 13.78740310668945 C 9.611629486083984 13.41122245788574 9.861473083496094 12.86540603637695 9.858441352844238 12.28454113006592 L 9.858421325683594 12.27673149108887 L 9.858370780944824 3.112683773040771 C 9.853554725646973 2.228450059890747 9.130526542663574 1.505952119827271 8.24504566192627 1.500030994415283 L 3.111502170562744 1.500001072883606 C 2.226439952850342 1.505924820899963 1.504314064979553 2.22943377494812 1.500040888786316 3.115075588226318 L 1.500080943107605 12.28186130523682 L 1.500040888786316 12.28707122802734 C 1.496000528335571 12.87054347991943 1.750677466392517 13.42012023925781 2.199346780776978 13.79763889312744 L 4.482531070709229 15.58537101745605 C 4.829670906066895 15.86097145080566 5.265380859375 16.01275062561035 5.709411144256592 16.01276016235352 M 5.709391117095947 17.51276016235352 C 4.9287109375 17.51275062561035 4.16071081161499 17.24513053894043 3.549840927124023 16.76014137268066 L 1.256700873374939 14.96466064453125 C 0.4511109292507172 14.29854106903076 -0.007159074768424034 13.31998062133789 8.092544885585085e-05 12.27666091918945 L 4.092544622835703e-05 3.112281084060669 C 0.005910925567150116 1.401491045951843 1.401530981063843 0.0076910350471735 3.108240842819214 1.034851038639317e-06 L 8.248311042785645 3.103485141764395e-05 C 9.957290649414062 0.007731034886091948 11.35111045837402 1.401551008224487 11.35837078094482 3.10827112197876 L 11.35842132568359 12.27672100067139 C 11.36386108398438 13.32004070281982 10.90786075592041 14.2986011505127 10.10228061676025 14.96471118927002 L 10.09458065032959 14.97014141082764 L 7.867580890655518 16.76016044616699 C 7.256260871887207 17.24514198303223 6.49052095413208 17.51276016235352 5.709391117095947 17.51276016235352 Z"/>
      </g>
      <path id="路径_3760" data-name="路径 3760" class="cls-4" d="M9.326,2.077,7.8,1.536l-2.541.9a.741.741,0,0,1-.495,0l-2.541-.9-1.687.6C0,1.227.27,1.276,0,.739l1.966-.7a.741.741,0,0,1,.495,0L5,.943l2.541-.9a.741.741,0,0,1,.495,0l1.969.7A3.714,3.714,0,0,1,9.326,2.077Z" transform="translate(5.004 10.741) rotate(45)"/>
      <path id="减去_89" data-name="减去 89" class="cls-4" d="M4.892,3.725a3.487,3.487,0,0,1-2.16-.753L.439,1.177A3.445,3.445,0,0,1,0,.744L2.1,0l2.54.9a.738.738,0,0,0,.494,0L7.675,0,9.734.73a3.388,3.388,0,0,1-.45.447l-.008,0L7.049,2.972A3.483,3.483,0,0,1,4.892,3.725Z" transform="translate(4.531 11.483) rotate(45)"/>
    </g>
  </g>
</svg>
