<svg id="首页" xmlns="http://www.w3.org/2000/svg" width="28" height="28" viewBox="0 0 28 28">
  <defs>
    <style>
      .cls-1 {
        fill: #7a8c99;
        stroke: #7a8c99;
      }

      .cls-1, .cls-2 {
        opacity: 0;
      }

      .cls-2, .cls-4 {
        fill: #36aafd;
      }

      .cls-3, .cls-6 {
        fill: none;
      }

      .cls-5, .cls-7 {
        stroke: none;
      }

      .cls-7 {
        fill: #36aafd;
      }
    </style>
  </defs>
  <g id="矩形_3892" data-name="矩形 3892" class="cls-1">
    <rect class="cls-5" width="28" height="28"/>
    <rect class="cls-6" x="0.5" y="0.5" width="27" height="27"/>
  </g>
  <g id="图层_2" data-name="图层 2" transform="translate(3 3)">
    <g id="图层_1" data-name="图层 1">
      <rect id="矩形_6297" data-name="矩形 6297" class="cls-2" width="22" height="22"/>
      <g id="组_6996" data-name="组 6996" transform="translate(1.018 1.086)">
        <g id="路径_3852" data-name="路径 3852" class="cls-3" transform="translate(3 6)">
          <path class="cls-5" d="M-.614,1.307A2.916,2.916,0,0,1,.251.348L5.107-3.378A4.193,4.193,0,0,1,7.09-4.124a3.444,3.444,0,0,1,1.865.692L13.5.15a4.787,4.787,0,0,1,1.018,1.157,4.068,4.068,0,0,1,.449,1.4V9.636a2.608,2.608,0,0,1-.756,1.639,3.4,3.4,0,0,1-1.644.674H1.236a1.933,1.933,0,0,1-1.5-.674A2.567,2.567,0,0,1-1,9.636V2.726A4.426,4.426,0,0,1-.614,1.307Z"/>
          <path class="cls-7" d="M 7.117711067199707 -2.624233722686768 L 7.111461162567139 -2.624193668365479 C 6.807460784912109 -2.619944095611572 6.275043964385986 -2.35995626449585 5.993072986602783 -2.166921138763428 L 1.121611595153809 1.570086479187012 L 1.077530860900879 1.599206924438477 C 1.050121307373047 1.617326736450195 0.8185710906982422 1.805276870727539 0.7133808135986328 2.00529670715332 C 0.6086196899414062 2.204494476318359 0.5287542343139648 2.578429222106934 0.5000009536743164 2.80713939666748 L 0.5000009536743164 9.60039234161377 C 0.5067825317382812 9.661640167236328 0.5524368286132812 9.960341453552246 0.8157415390014648 10.23280715942383 C 0.9738245010375977 10.39639377593994 1.099703788757324 10.43861293792725 1.150045394897461 10.44941711425781 L 12.46311569213867 10.44941711425781 C 12.61216354370117 10.42257118225098 13.00577545166016 10.32596778869629 13.24190139770508 10.12732696533203 C 13.33756065368652 10.04685211181641 13.43594837188721 9.763343811035156 13.46347141265869 9.559388160705566 L 13.46347141265869 2.806471824645996 C 13.43810653686523 2.659859180450439 13.36046028137207 2.309731006622314 13.21381092071533 2.054586887359619 C 13.0564022064209 1.780727386474609 12.73110675811768 1.46153450012207 12.55996036529541 1.321795463562012 L 8.02936840057373 -2.251623630523682 C 7.885946750640869 -2.362757205963135 7.426021575927734 -2.624233722686768 7.117711067199707 -2.624233722686768 M 7.117713451385498 -4.124232769012451 C 8.069554328918457 -4.124232769012451 8.955421447753906 -3.431643009185791 8.955421447753906 -3.431643009185791 L 13.49613094329834 0.149756908416748 C 13.49613094329834 0.149756908416748 14.14745140075684 0.6688666343688965 14.51429176330566 1.307096481323242 C 14.88113117218018 1.945336818695068 14.96347141265869 2.702696800231934 14.96347141265869 2.702696800231934 L 14.96347141265869 9.635696411132812 C 14.96347141265869 9.635696411132812 14.89511108398438 10.69674682617188 14.20752143859863 11.27517700195312 C 13.51994132995605 11.85360717773438 12.56353092193604 11.94941711425781 12.56353092193604 11.94941711425781 L 1.23590087890625 11.94941711425781 C 1.235899925231934 11.94941711425781 0.4751214981079102 12.03888702392578 -0.2628984451293945 11.27517700195312 C -1.00092887878418 10.51146697998047 -0.9999990463256836 9.635696411132812 -0.9999990463256836 9.635696411132812 L -0.9999990463256836 2.725646495819092 C -0.9999990463256836 2.725646495819092 -0.9268589019775391 1.901566505432129 -0.6142187118530273 1.307096481323242 C -0.3015785217285156 0.7126364707946777 0.2505416870117188 0.3477768898010254 0.2505416870117188 0.3477768898010254 L 5.107161521911621 -3.377843379974365 C 5.107161521911621 -3.377843379974365 6.128421306610107 -4.110593318939209 7.09049129486084 -4.124042987823486 C 7.099534034729004 -4.124169826507568 7.108681678771973 -4.124232769012451 7.117713451385498 -4.124232769012451 Z"/>
        </g>
        <path id="路径_3763" data-name="路径 3763" class="cls-4" d="M2.661-1A2.468,2.468,0,0,1,5.322,1.213V5.56s-1.331.092-2.661.092S0,5.56,0,5.56V1.213A2.468,2.468,0,0,1,2.661-1Z" transform="translate(7.321 11.991)"/>
      </g>
    </g>
  </g>
</svg>
