<svg xmlns="http://www.w3.org/2000/svg" width="28" height="28" viewBox="0 0 28 28">
  <defs>
    <style>
      .cls-1 {
        fill: #36aafd;
      }

      .cls-1, .cls-2 {
        opacity: 0;
      }

      .cls-2 {
        fill: #36aafd;
      }

      .cls-3 {
        fill: #36aafd;
        stroke: #36aafd;
        stroke-width: 0.5px;
      }
    </style>
  </defs>
  <g id="icon_退出" data-name="icon/退出" transform="translate(-900 -226)">
    <rect id="矩形_3070" data-name="矩形 3070" class="cls-1" width="28" height="28" transform="translate(900 226)"/>
    <g id="组_2797" data-name="组 2797" transform="translate(902 228)">
      <g id="组_2792" data-name="组 2792">
        <rect id="矩形_2950" data-name="矩形 2950" class="cls-2" width="24" height="24"/>
        <path id="路径_767" data-name="路径 767" class="cls-3" d="M153.327,139.2a8.246,8.246,0,0,1-3.185-.632,8.145,8.145,0,0,1-2.6-1.72,8.009,8.009,0,0,1-1.754-2.553,7.9,7.9,0,0,1,.293-6.853,8.172,8.172,0,0,1,2.489-2.8.648.648,0,0,1,.894.145.619.619,0,0,1-.148.875,6.909,6.909,0,0,0-2.1,2.364,6.569,6.569,0,0,0-.79,3.142,6.667,6.667,0,0,0,2.023,4.791,6.993,6.993,0,0,0,9.762,0,6.667,6.667,0,0,0,2.022-4.791,6.563,6.563,0,0,0-.79-3.142,6.9,6.9,0,0,0-2.1-2.363.619.619,0,0,1-.148-.875.647.647,0,0,1,.893-.145,8.163,8.163,0,0,1,2.49,2.8,7.894,7.894,0,0,1,.293,6.853,8,8,0,0,1-1.754,2.553,8.184,8.184,0,0,1-2.6,1.721,8.293,8.293,0,0,1-3.185.629h0Zm.192-9.714a.633.633,0,0,1-.64-.627v-6.438a.64.64,0,0,1,1.281,0v6.438a.634.634,0,0,1-.641.627Z" transform="translate(-141.327 -118.495)"/>
      </g>
    </g>
  </g>
</svg>
